# xmcd
#
# Track frame offsets: 
#        150
#        16104
#        32894
#        50763
#        69155
#        80777
#        96927
#        112032
#        132187
#        147444
#
# Disc length: 2223 seconds
#
# Revision: 0
# Processed by: cddbd v1.5.2PL0 Copyright (c) Steve Scherf et al.
# Submitted via: ExactAudioCopyFreeDBPlugin 1.0
#
DISCID=8b08ad0a
DTITLE=Paula Jo Taylor - Me, My Dad, My Daughter
DYEAR=2009
DGENRE=Country
TTITLE0=Folsom Prison Blues
TTITLE1=One Jack Off (The Poker Game)
TTITLE2=Working (Girl) Blues
TTITLE3=Willie's Got a Big Deck
TTITLE4=Chick Pickin'
TTITLE5=You Play Like Chet
TTITLE6=Cooter
TTITLE7=Jackson
TTITLE8=Miss Understanding
TTITLE9=My Way
EXTD=
EXTT0=
EXTT1=
EXTT2=
EXTT3=
EXTT4=
EXTT5=
EXTT6=
EXTT7=
EXTT8=
EXTT9=
PLAYORDER=
